Coordinates
version=1
nRows=26
nColumns=24
inDegrees=yes

Units are S.I. units (second, meters, Newtons, ...)
Angles are in degrees.

endheader
time	pelvis_tilt	pelvis_list	pelvis_rotation	pelvis_tx	pelvis_ty	pelvis_tz	hip_flexion_r	hip_adduction_r	hip_rotation_r	knee_angle_r	ankle_angle_r	subtalar_angle_r	mtp_angle_r	hip_flexion_l	hip_adduction_l	hip_rotation_l	knee_angle_l	ankle_angle_l	subtalar_angle_l	mtp_angle_l	lumbar_extension	lumbar_bending	lumbar_rotation
      1.09200000	     -3.72615473	      5.04149795	     -2.13478254	      0.17799806	      0.90309208	      0.31070146	     19.43617297	     -9.03114564	     -5.65502130	    -74.17137114	     -4.39585281	     11.51037891	      8.99717530	     14.53870702	      7.85538839	     -5.41254603	    -18.66197357	     10.07901015	     -5.08837440	      3.22399818	     -5.23492655	     -7.56420757	      2.32386153
      1.09616667	     -3.70921415	      4.85381343	     -2.07399511	      0.18330299	      0.90428345	      0.31051134	     20.11337694	     -8.77290390	     -5.75167564	    -74.06640230	     -3.90575200	     11.35320391	      8.90420504	     13.83286239	      7.73919981	     -5.18426110	    -18.05478612	     10.08473993	     -5.14628799	      3.20530890	     -5.25647804	     -7.33563969	      2.15864445
      1.10033333	     -3.70749651	      4.65201894	     -2.00496477	      0.18859935	      0.90541020	      0.31030714	     20.78896095	     -8.49680048	     -5.86218040	    -73.89130251	     -3.38915697	     11.17181331	      8.86953331	     13.16700421	      7.59595706	     -5.00916799	    -17.49447731	     10.09534605	     -5.11677062	      3.19613632	     -5.25659393	     -7.07559474	      2.04791852
      1.10450000	     -3.65262991	      4.44889120	     -1.92504947	      0.19394243	      0.90662007	      0.31006529	     21.37160099	     -8.23239504	     -5.99815809	    -73.61991750	     -2.95702492	     11.01047921	      8.77624833	     12.39945162	      7.47446278	     -4.70298992	    -16.84221656	     10.08140089	     -5.27024428	      3.17098562	     -5.31887982	     -6.82642934	      1.78916917
      1.10866667	     -3.62361557	      4.22725518	     -1.83690773	      0.19925676	      0.90774136	      0.30982742	     21.96446495	     -7.93899673	     -6.14108337	    -73.28153115	     -2.48549723	     10.81562619	      8.70262518	     11.68984715	      7.31826171	     -4.44700216	    -16.24842084	     10.07623816	     -5.33817972	      3.14908052	     -5.35403808	     -6.55306791	      1.61632231
      1.11283333	     -3.58357925	      4.00472141	     -1.74070920	      0.20458453	      0.90884324	      0.30956868	     22.52203062	     -7.65153536	     -6.30024872	    -72.87058942	     -2.03137141	     10.60288135	      8.62532973	     10.96548757	      7.16045497	     -4.18108025	    -15.64592639	     10.06077406	     -5.41731537	      3.12486244	     -5.39954468	     -6.27394101	      1.41542191
      1.11700000	     -3.56349294	      3.77310295	     -1.63588895	      0.20987362	      0.90985455	      0.30929943	     23.08666973	     -7.35233042	     -6.46485721	    -72.40213855	     -1.54024224	     10.37601065	      8.57902162	     10.29120470	      6.98180610	     -3.95360216	    -15.09452315	     10.03987487	     -5.42981161	      3.10922767	     -5.43795200	     -5.96692568	      1.26741701
      1.12116667	     -3.48678073	      3.53913338	     -1.52185791	      0.21522889	      0.91094401	      0.30901187	     23.55110918	     -7.06528663	     -6.66056420	    -71.83845830	     -1.16001002	     10.12809406	      8.48455051	      9.51631092	      6.81241725	     -3.64002262	    -14.46649804	     10.03142466	     -5.57353567	      3.08031517	     -5.50965907	     -5.68726937	      0.99829208
      1.12533333	     -3.43485532	      3.30304174	     -1.40195888	      0.22054052	      0.91192809	      0.30871786	     24.03121943	     -6.77419249	     -6.85450474	    -71.22466299	     -0.73155293	      9.87504319	      8.39354029	      8.79547516	      6.62936839	     -3.36037427	    -13.88511099	     10.01092009	     -5.66137133	      3.05271929	     -5.57149938	     -5.38652522	      0.78706150
      1.12950000	     -3.37371054	      3.06373923	     -1.27342198	      0.22584026	      0.91287625	      0.30841433	     24.48114590	     -6.48452683	     -7.06156646	    -70.54769872	     -0.32357809	      9.59758463	      8.29683153	      8.07288402	      6.43804386	     -3.08491135	    -13.31523597	      9.99191956	     -5.74007697	      3.02519404	     -5.64895635	     -5.08111183	      0.56673264
      1.13366667	     -3.31184986	      2.82521109	     -1.13949892	      0.23114636	      0.91377163	      0.30810249	     24.90899075	     -6.20150180	     -7.27702177	    -69.80920828	      0.07506998	      9.30918639	      8.19620928	      7.35351131	      6.24238141	     -2.80873596	    -12.75069607	      9.97894973	     -5.81340496	      2.99835148	     -5.72049034	     -4.76969626	      0.34392489
      1.13783333	     -3.24830658	      2.60916895	     -0.99769279	      0.23642854	      0.91460490	      0.30778025	     25.32370190	     -5.94842152	     -7.49259891	    -69.02666239	      0.48781748	      9.01196219	      7.97605291	      6.62657742	      6.07353905	     -2.48521730	    -12.16071585	      9.89128796	     -5.99335354	      2.94108084	     -5.79704949	     -4.50767141	      0.03112794
      1.14200000	     -3.19372180	      2.34972432	     -0.84284610	      0.24169621	      0.91538288	      0.30748433	     25.71393909	     -5.64584213	     -7.73068826	    -68.15716256	      0.87252256	      8.71790735	      7.91095291	      5.96272648	      5.83243837	     -2.27458740	    -11.68737653	      9.93055428	     -5.95304198	      2.92637899	     -5.85905844	     -4.19084057	     -0.08426997
      1.14616667	     -3.09221248	      2.12377374	     -0.70464675	      0.24697871	      0.91616112	      0.30717803	     26.04727539	     -5.38644617	     -7.95459376	    -67.24639675	      1.15991908	      8.36580721	      7.79317690	      5.20801007	      5.63545679	     -2.00691767	    -11.12371134	      9.95758567	     -6.00229748	      2.90113028	     -5.98378162	     -3.88635230	     -0.34968763
      1.15033333	     -3.01065489	      1.89920526	     -0.55013684	      0.25223636	      0.91684599	      0.30685864	     26.38352165	     -5.13480252	     -8.19009486	    -66.28608714	      1.47611591	      8.02178773	      7.66116447	      4.49537638	      5.43328043	     -1.74195563	    -10.59520596	      9.95836571	     -6.06436942	      2.87379139	     -6.08413470	     -3.59596948	     -0.60313667
      1.15450000	     -2.93630225	      1.70848020	     -0.39299429	      0.25747549	      0.91743920	      0.30653838	     26.72123717	     -4.92587884	     -8.42036302	    -65.29636425	      1.82218699	      7.68474340	      7.34884503	      3.78509158	      5.26824210	     -1.43758458	    -10.04371475	      9.88191959	     -6.24603176	      2.80962139	     -6.16943889	     -3.35247545	     -0.93909713
      1.15866667	     -2.86738857	      1.47887928	     -0.22787349	      0.26269263	      0.91797837	      0.30625954	     27.03392678	     -4.66670595	     -8.65968132	    -64.22311208	      2.10691841	      7.34106378	      7.25708576	      3.13357708	      5.03738273	     -1.25030602	     -9.60573613	      9.94357062	     -6.18159864	      2.79428287	     -6.25513134	     -3.06777252	     -1.06052692
      1.16283333	     -2.78411913	      1.30377357	     -0.07586144	      0.26791833	      0.91844932	      0.30595392	     27.33367341	     -4.47728232	     -8.88205503	    -63.13751035	      2.35674469	      6.99127661	      6.86484363	      2.41734974	      4.87821426	     -0.95955405	     -9.05666544	      9.91986677	     -6.34033003	      2.72227007	     -6.34677331	     -2.82714234	     -1.42699064
      1.16700000	     -2.69867276	      1.11330010	      0.07327365	      0.27311012	      0.91885979	      0.30570910	     27.61147248	     -4.25642356	     -9.09321286	    -61.98943222	      2.56254085	      6.59399849	      6.75032023	      1.74651356	      4.68034122	     -0.79444260	     -8.60654392	      9.99743023	     -6.24971323	      2.70543864	     -6.46431213	     -2.58880652	     -1.56112778
      1.17116667	     -2.61722103	      0.95801962	      0.22594739	      0.27829450	      0.91918603	      0.30545471	     27.88613679	     -4.08051865	     -9.29960732	    -60.81791701	      2.79024068	      6.19048631	      6.49709326	      1.06645569	      4.52298288	     -0.58140249	     -8.11912247	      9.98664795	     -6.28740297	      2.66503088	     -6.56975508	     -2.39413656	     -1.86467017
      1.17533333	     -2.55977787	      0.77930119	      0.38859881	      0.28347183	      0.91942584	      0.30521114	     28.15842019	     -3.88030144	     -9.51921979	    -59.57701924	      2.97861614	      5.84466020	      6.40531462	      0.45073044	      4.32814341	     -0.42599488	     -7.71434516	     10.05997769	     -6.22592088	      2.65360488	     -6.63646351	     -2.15667237	     -1.99752009
      1.17950000	     -2.48196060	      0.63737149	      0.53060187	      0.28864563	      0.91960738	      0.30500194	     28.40815862	     -3.70996915	     -9.70541918	    -58.31791775	      3.11618176	      5.44464180	      6.29781975	     -0.20644392	      4.17185293	     -0.27148890	     -7.26637370	     10.11375093	     -6.18673850	      2.64081012	     -6.73498098	     -1.97283933	     -2.21469501
      1.18366667	     -2.41656066	      0.51229328	      0.67068287	      0.29381248	      0.91969752	      0.30480202	     28.65915728	     -3.55729338	     -9.88269720	    -57.02544789	      3.24036270	      5.06411949	      6.18216157	     -0.84673823	      4.03107656	     -0.11575211	     -6.82316385	     10.16559317	     -6.16084492	      2.62792191	     -6.82038159	     -1.80837925	     -2.44300337
      1.18783333	     -2.35975963	      0.39951094	      0.80794540	      0.29897561	      0.91970414	      0.30462726	     28.90654053	     -3.41287516	    -10.04804457	    -55.70019706	      3.34884777	      4.69311792	      6.06887315	     -1.47082623	      3.89828877	      0.02642727	     -6.39507203	     10.21864368	     -6.12951786	      2.61621737	     -6.89341218	     -1.65706032	     -2.66033652
      1.19200000	     -2.30186630	      0.30525898	      0.93472581	      0.30413571	      0.91963842	      0.30447915	     29.14237479	     -3.28107492	    -10.19450784	    -54.34593184	      3.42530127	      4.32462008	      5.94765791	     -2.09611908	      3.78290015	      0.15667265	     -5.96724430	     10.27915918	     -6.09530249	      2.60448422	     -6.96886048	     -1.53058335	     -2.88249933
      1.19616667	     -2.25625580	      0.22434047	      1.05505378	      0.30930339	      0.91948380	      0.30434860	     29.37735333	     -3.15803733	    -10.32524287	    -52.96273588	      3.49145057	      3.97408770	      5.82783237	     -2.70457396	      3.67898323	      0.27090409	     -5.54826626	     10.34181451	     -6.05440638	      2.59390409	     -7.02816807	     -1.42121278	     -3.09533063
